<mxfile host="app.diagrams.net" modified="2022-04-06T14:02:14.349Z" agent="5.0 (Macintosh)" etag="O9IY5AZQA1ljDQ5RLRum" version="17.1.5" type="github">
  <diagram id="wmI7wNSezniwaIVf_9G3" name="Page-1">
    <mxGraphModel dx="1033" dy="1166" grid="1" gridSize="10" guides="1" tooltips="1" connect="1" arrows="1" fold="1" page="1" pageScale="1" pageWidth="1169" pageHeight="827" math="0" shadow="0">
      <root>
        <mxCell id="0" />
        <mxCell id="1" parent="0" />
        <mxCell id="qgC_dDuxxNJc28VRqnJa-1" value="FlowDesigner" style="html=1;outlineConnect=0;whiteSpace=wrap;fillColor=#d5e8d4;shape=mxgraph.archimate3.application;appType=comp;archiType=square;verticalAlign=top;strokeColor=#82b366;" vertex="1" parent="1">
          <mxGeometry x="250" y="260" width="131.5" height="250" as="geometry" />
        </mxCell>
        <mxCell id="qgC_dDuxxNJc28VRqnJa-2" value="Requested Item &amp;lt;sc_req_item&amp;gt;" style="html=1;outlineConnect=0;whiteSpace=wrap;fillColor=#d5e8d4;shape=mxgraph.archimate3.businessObject;overflow=fill;strokeColor=#82b366;" vertex="1" parent="1">
          <mxGeometry x="90" y="90" width="150" height="75" as="geometry" />
        </mxCell>
        <mxCell id="qgC_dDuxxNJc28VRqnJa-4" value="Configuration" style="html=1;outlineConnect=0;whiteSpace=wrap;fillColor=#d5e8d4;shape=mxgraph.archimate3.application;appType=comp;archiType=square;verticalAlign=top;strokeColor=#82b366;" vertex="1" parent="1">
          <mxGeometry x="450" y="40" width="135" height="187" as="geometry" />
        </mxCell>
        <mxCell id="qgC_dDuxxNJc28VRqnJa-5" value="&lt;div&gt;MAP: &lt;br&gt;&lt;/div&gt;&lt;div&gt;Request Item &lt;br&gt;&lt;/div&gt;&lt;div&gt;with&lt;/div&gt;&lt;div&gt;Pipeline&lt;br&gt;&lt;/div&gt;" style="html=1;outlineConnect=0;whiteSpace=wrap;fillColor=#d5e8d4;shape=mxgraph.archimate3.application;appType=comp;archiType=square;verticalAlign=top;strokeColor=#82b366;" vertex="1" parent="1">
          <mxGeometry x="475" y="65" width="90" height="66" as="geometry" />
        </mxCell>
        <mxCell id="qgC_dDuxxNJc28VRqnJa-6" value="&lt;div&gt;Pipeline: &lt;br&gt;&lt;/div&gt;&lt;div&gt;Trigger Properties &lt;/div&gt;" style="html=1;outlineConnect=0;whiteSpace=wrap;fillColor=#d5e8d4;shape=mxgraph.archimate3.application;appType=comp;archiType=square;verticalAlign=top;strokeColor=#82b366;" vertex="1" parent="1">
          <mxGeometry x="475" y="157" width="90" height="66" as="geometry" />
        </mxCell>
        <mxCell id="qgC_dDuxxNJc28VRqnJa-7" value="" style="html=1;endArrow=block;dashed=1;elbow=vertical;endFill=1;dashPattern=6 4;rounded=0;" edge="1" parent="1" source="qgC_dDuxxNJc28VRqnJa-2" target="qgC_dDuxxNJc28VRqnJa-4">
          <mxGeometry width="160" relative="1" as="geometry">
            <mxPoint x="500" y="520" as="sourcePoint" />
            <mxPoint x="660" y="520" as="targetPoint" />
          </mxGeometry>
        </mxCell>
        <mxCell id="qgC_dDuxxNJc28VRqnJa-8" value="" style="html=1;endArrow=block;dashed=1;elbow=vertical;endFill=1;dashPattern=6 4;rounded=0;entryX=0.5;entryY=0;entryDx=0;entryDy=0;entryPerimeter=0;" edge="1" parent="1" source="qgC_dDuxxNJc28VRqnJa-4" target="qgC_dDuxxNJc28VRqnJa-1">
          <mxGeometry width="160" relative="1" as="geometry">
            <mxPoint x="250" y="137.5" as="sourcePoint" />
            <mxPoint x="460" y="96.75" as="targetPoint" />
          </mxGeometry>
        </mxCell>
      </root>
    </mxGraphModel>
  </diagram>
</mxfile>
